<?xml version="1.0" encoding="UTF-8" standalone="no"?><svg xmlns="http://www.w3.org/2000/svg" xmlns:xlink="http://www.w3.org/1999/xlink" contentScriptType="application/ecmascript" contentStyleType="text/css" height="936px" preserveAspectRatio="none" style="width:712px;height:936px;" version="1.1" viewBox="0 0 712 936" width="712px" zoomAndPan="magnify"><defs/><g><rect fill="none" height="26.2969" style="stroke: none; stroke-width: 1.0;" width="122" x="268.5" y="15"/><text fill="#000000" font-family="sans-serif" font-size="14" font-weight="bold" lengthAdjust="spacingAndGlyphs" textLength="112" x="273.5" y="32.9951">各章节命令一览表</text><rect fill="#F8F8F8" height="36.2969" rx="12.5" ry="12.5" style="stroke: #383838; stroke-width: 1.5;" width="89" x="10" y="467.5664"/><text fill="#000000" font-family="sans-serif" font-size="14" lengthAdjust="spacingAndGlyphs" textLength="69" x="20" y="490.5615">GitCourse</text><rect fill="#F8F8F8" height="36.2969" rx="12.5" ry="12.5" style="stroke: #383838; stroke-width: 1.5;" width="63" x="149" y="74.8906"/><text fill="#000000" font-family="sans-serif" font-size="14" lengthAdjust="spacingAndGlyphs" textLength="43" x="159" y="97.8857">Exp01</text><text fill="#000000" font-family="sans-serif" font-size="14" font-weight="bold" lengthAdjust="spacingAndGlyphs" textLength="62" x="265" y="61.292">gh repo</text><text fill="#000000" font-family="sans-serif" font-size="14" lengthAdjust="spacingAndGlyphs" textLength="163" x="331" y="61.292">[clone|create|fork|view]</text><path d="M212,93.0391 L222,93.0391 C237,93.0391 237,56.4453 252,56.4453 L262,56.4453 " fill="none" style="stroke: #383838; stroke-width: 1.0;"/><text fill="#000000" font-family="sans-serif" font-size="14" font-weight="bold" lengthAdjust="spacingAndGlyphs" textLength="67" x="265" y="79.5889">gh issue</text><text fill="#000000" font-family="sans-serif" font-size="14" lengthAdjust="spacingAndGlyphs" textLength="258" x="336" y="79.5889">[list|view|status|create|close|reopen]</text><path d="M212,93.0391 L222,93.0391 C237,93.0391 237,74.7422 252,74.7422 L262,74.7422 " fill="none" style="stroke: #383838; stroke-width: 1.0;"/><text fill="#000000" font-family="sans-serif" font-size="14" font-weight="bold" lengthAdjust="spacingAndGlyphs" textLength="42" x="265" y="97.8857">gh pr</text><text fill="#000000" font-family="sans-serif" font-size="14" lengthAdjust="spacingAndGlyphs" textLength="389" x="311" y="97.8857">[checks|list|view|create|close|reopen|diff|review|merge]</text><path d="M212,93.0391 L222,93.0391 C237,93.0391 237,93.0391 252,93.0391 L262,93.0391 " fill="none" style="stroke: #383838; stroke-width: 1.0;"/><text fill="#000000" font-family="sans-serif" font-size="14" font-weight="bold" lengthAdjust="spacingAndGlyphs" textLength="84" x="265" y="116.1826">gh release</text><text fill="#000000" font-family="sans-serif" font-size="14" lengthAdjust="spacingAndGlyphs" textLength="286" x="353" y="116.1826">[view|list|create|delete|download|upload]</text><path d="M212,93.0391 L222,93.0391 C237,93.0391 237,111.3359 252,111.3359 L262,111.3359 " fill="none" style="stroke: #383838; stroke-width: 1.0;"/><text fill="#000000" font-family="sans-serif" font-size="14" font-weight="bold" lengthAdjust="spacingAndGlyphs" textLength="54" x="265" y="134.4795">gh gist</text><path d="M212,93.0391 L222,93.0391 C237,93.0391 237,129.6328 252,129.6328 L262,129.6328 " fill="none" style="stroke: #383838; stroke-width: 1.0;"/><path d="M99,485.7148 L109,485.7148 C124,485.7148 124,93.0391 139,93.0391 L149,93.0391 " fill="none" style="stroke: #383838; stroke-width: 1.0;"/><rect fill="#F8F8F8" height="36.2969" rx="12.5" ry="12.5" style="stroke: #383838; stroke-width: 1.5;" width="63" x="149" y="184.6719"/><text fill="#000000" font-family="sans-serif" font-size="14" lengthAdjust="spacingAndGlyphs" textLength="43" x="159" y="207.667">Exp02</text><text fill="#000000" font-family="sans-serif" font-size="14" font-weight="bold" lengthAdjust="spacingAndGlyphs" textLength="74" x="265" y="152.7764">git config</text><text fill="#000000" font-family="sans-serif" font-size="14" lengthAdjust="spacingAndGlyphs" textLength="306" x="343" y="152.7764">[--global|system|local] &lt;key&gt; &lt;value&gt;&lt;/b&gt;</text><path d="M212,202.8203 L222,202.8203 C237,202.8203 237,147.9297 252,147.9297 L262,147.9297 " fill="none" style="stroke: #383838; stroke-width: 1.0;"/><text fill="#000000" font-family="sans-serif" font-size="14" font-weight="bold" lengthAdjust="spacingAndGlyphs" textLength="49" x="265" y="171.0732">git init</text><path d="M212,202.8203 L222,202.8203 C237,202.8203 237,166.2266 252,166.2266 L262,166.2266 " fill="none" style="stroke: #383838; stroke-width: 1.0;"/><text fill="#000000" font-family="sans-serif" font-size="14" font-weight="bold" lengthAdjust="spacingAndGlyphs" textLength="54" x="265" y="189.3701">git add</text><text fill="#000000" font-family="sans-serif" font-size="14" lengthAdjust="spacingAndGlyphs" textLength="120" x="323" y="189.3701">[.|file|folder]&lt;/b&gt;</text><path d="M212,202.8203 L222,202.8203 C237,202.8203 237,184.5234 252,184.5234 L262,184.5234 " fill="none" style="stroke: #383838; stroke-width: 1.0;"/><text fill="#000000" font-family="sans-serif" font-size="14" font-weight="bold" lengthAdjust="spacingAndGlyphs" textLength="82" x="265" y="207.667">git commit</text><text fill="#000000" font-family="sans-serif" font-size="14" lengthAdjust="spacingAndGlyphs" textLength="100" x="351" y="207.667">[-m msg]&lt;/b&gt;</text><path d="M212,202.8203 L222,202.8203 C237,202.8203 237,202.8203 252,202.8203 L262,202.8203 " fill="none" style="stroke: #383838; stroke-width: 1.0;"/><text fill="#000000" font-family="sans-serif" font-size="14" font-weight="bold" lengthAdjust="spacingAndGlyphs" textLength="49" x="265" y="225.9639">git log</text><path d="M212,202.8203 L222,202.8203 C237,202.8203 237,221.1172 252,221.1172 L262,221.1172 " fill="none" style="stroke: #383838; stroke-width: 1.0;"/><text fill="#000000" font-family="sans-serif" font-size="14" font-weight="bold" lengthAdjust="spacingAndGlyphs" textLength="68" x="265" y="244.2607">git show</text><path d="M212,202.8203 L222,202.8203 C237,202.8203 237,239.4141 252,239.4141 L262,239.4141 " fill="none" style="stroke: #383838; stroke-width: 1.0;"/><text fill="#000000" font-family="sans-serif" font-size="14" font-weight="bold" lengthAdjust="spacingAndGlyphs" textLength="74" x="265" y="262.5576">git status</text><path d="M212,202.8203 L222,202.8203 C237,202.8203 237,257.7109 252,257.7109 L262,257.7109 " fill="none" style="stroke: #383838; stroke-width: 1.0;"/><path d="M99,485.7148 L109,485.7148 C124,485.7148 124,202.8203 139,202.8203 L149,202.8203 " fill="none" style="stroke: #383838; stroke-width: 1.0;"/><rect fill="#F8F8F8" height="36.2969" rx="12.5" ry="12.5" style="stroke: #383838; stroke-width: 1.5;" width="63" x="149" y="285.3047"/><text fill="#000000" font-family="sans-serif" font-size="14" lengthAdjust="spacingAndGlyphs" textLength="43" x="159" y="308.2998">Exp03</text><text fill="#000000" font-family="sans-serif" font-size="14" font-weight="bold" lengthAdjust="spacingAndGlyphs" textLength="68" x="265" y="280.8545">git clone</text><path d="M212,303.4531 L222,303.4531 C237,303.4531 237,276.0078 252,276.0078 L262,276.0078 " fill="none" style="stroke: #383838; stroke-width: 1.0;"/><text fill="#000000" font-family="sans-serif" font-size="14" font-weight="bold" lengthAdjust="spacingAndGlyphs" textLength="66" x="265" y="299.1514">git fetch</text><path d="M212,303.4531 L222,303.4531 C237,303.4531 237,294.3047 252,294.3047 L262,294.3047 " fill="none" style="stroke: #383838; stroke-width: 1.0;"/><text fill="#000000" font-family="sans-serif" font-size="14" font-weight="bold" lengthAdjust="spacingAndGlyphs" textLength="64" x="265" y="317.4482">git push</text><path d="M212,303.4531 L222,303.4531 C237,303.4531 237,312.6016 252,312.6016 L262,312.6016 " fill="none" style="stroke: #383838; stroke-width: 1.0;"/><text fill="#000000" font-family="sans-serif" font-size="14" font-weight="bold" lengthAdjust="spacingAndGlyphs" textLength="82" x="265" y="335.7451">git remote</text><path d="M212,303.4531 L222,303.4531 C237,303.4531 237,330.8984 252,330.8984 L262,330.8984 " fill="none" style="stroke: #383838; stroke-width: 1.0;"/><path d="M99,485.7148 L109,485.7148 C124,485.7148 124,303.4531 139,303.4531 L149,303.4531 " fill="none" style="stroke: #383838; stroke-width: 1.0;"/><rect fill="#F8F8F8" height="36.2969" rx="12.5" ry="12.5" style="stroke: #383838; stroke-width: 1.5;" width="63" x="149" y="376.7891"/><text fill="#000000" font-family="sans-serif" font-size="14" lengthAdjust="spacingAndGlyphs" textLength="43" x="159" y="399.7842">Exp04</text><text fill="#000000" font-family="sans-serif" font-size="14" font-weight="bold" lengthAdjust="spacingAndGlyphs" textLength="53" x="265" y="354.042">git pull</text><path d="M212,394.9375 L222,394.9375 C237,394.9375 237,349.1953 252,349.1953 L262,349.1953 " fill="none" style="stroke: #383838; stroke-width: 1.0;"/><text fill="#000000" font-family="sans-serif" font-size="14" font-weight="bold" lengthAdjust="spacingAndGlyphs" textLength="80" x="265" y="372.3389">git branch</text><path d="M212,394.9375 L222,394.9375 C237,394.9375 237,367.4922 252,367.4922 L262,367.4922 " fill="none" style="stroke: #383838; stroke-width: 1.0;"/><text fill="#000000" font-family="sans-serif" font-size="14" font-weight="bold" lengthAdjust="spacingAndGlyphs" textLength="98" x="265" y="390.6357">git checkout</text><path d="M212,394.9375 L222,394.9375 C237,394.9375 237,385.7891 252,385.7891 L262,385.7891 " fill="none" style="stroke: #383838; stroke-width: 1.0;"/><text fill="#000000" font-family="sans-serif" font-size="14" font-weight="bold" lengthAdjust="spacingAndGlyphs" textLength="50" x="265" y="408.9326">git tag</text><path d="M212,394.9375 L222,394.9375 C237,394.9375 237,404.0859 252,404.0859 L262,404.0859 " fill="none" style="stroke: #383838; stroke-width: 1.0;"/><text fill="#000000" font-family="sans-serif" font-size="14" font-weight="bold" lengthAdjust="spacingAndGlyphs" textLength="112" x="265" y="427.2295">git diff/difftool</text><path d="M212,394.9375 L222,394.9375 C237,394.9375 237,422.3828 252,422.3828 L262,422.3828 " fill="none" style="stroke: #383838; stroke-width: 1.0;"/><text fill="#000000" font-family="sans-serif" font-size="14" font-weight="bold" lengthAdjust="spacingAndGlyphs" textLength="162" x="265" y="445.5264">git merge/mergetool</text><path d="M212,394.9375 L222,394.9375 C237,394.9375 237,440.6797 252,440.6797 L262,440.6797 " fill="none" style="stroke: #383838; stroke-width: 1.0;"/><path d="M99,485.7148 L109,485.7148 C124,485.7148 124,394.9375 139,394.9375 L149,394.9375 " fill="none" style="stroke: #383838; stroke-width: 1.0;"/><rect fill="#F8F8F8" height="36.2969" rx="12.5" ry="12.5" style="stroke: #383838; stroke-width: 1.5;" width="63" x="149" y="459.125"/><text fill="#000000" font-family="sans-serif" font-size="14" lengthAdjust="spacingAndGlyphs" textLength="43" x="159" y="482.1201">Exp05</text><text fill="#000000" font-family="sans-serif" font-size="14" font-weight="bold" lengthAdjust="spacingAndGlyphs" textLength="67" x="265" y="463.8232">git reset</text><path d="M212,477.2734 L222,477.2734 C237,477.2734 237,458.9766 252,458.9766 L262,458.9766 " fill="none" style="stroke: #383838; stroke-width: 1.0;"/><text fill="#000000" font-family="sans-serif" font-size="14" font-weight="bold" lengthAdjust="spacingAndGlyphs" textLength="74" x="265" y="482.1201">git revert</text><path d="M212,477.2734 L222,477.2734 C237,477.2734 237,477.2734 252,477.2734 L262,477.2734 " fill="none" style="stroke: #383838; stroke-width: 1.0;"/><text fill="#000000" font-family="sans-serif" font-size="14" font-weight="bold" lengthAdjust="spacingAndGlyphs" textLength="80" x="265" y="500.417">git rebase</text><text fill="#000000" font-family="sans-serif" font-size="14" lengthAdjust="spacingAndGlyphs" textLength="18" x="349" y="500.417">[-i]</text><path d="M212,477.2734 L222,477.2734 C237,477.2734 237,495.5703 252,495.5703 L262,495.5703 " fill="none" style="stroke: #383838; stroke-width: 1.0;"/><path d="M99,485.7148 L109,485.7148 C124,485.7148 124,477.2734 139,477.2734 L149,477.2734 " fill="none" style="stroke: #383838; stroke-width: 1.0;"/><rect fill="#F8F8F8" height="36.2969" rx="12.5" ry="12.5" style="stroke: #383838; stroke-width: 1.5;" width="63" x="149" y="515.4219"/><text fill="#000000" font-family="sans-serif" font-size="14" lengthAdjust="spacingAndGlyphs" textLength="43" x="159" y="538.417">Exp06</text><path d="M99,485.7148 L109,485.7148 C124,485.7148 124,533.5703 139,533.5703 L149,533.5703 " fill="none" style="stroke: #383838; stroke-width: 1.0;"/><rect fill="#F8F8F8" height="36.2969" rx="12.5" ry="12.5" style="stroke: #383838; stroke-width: 1.5;" width="63" x="149" y="571.7188"/><text fill="#000000" font-family="sans-serif" font-size="14" lengthAdjust="spacingAndGlyphs" textLength="43" x="159" y="594.7139">Exp07</text><text fill="#000000" font-family="sans-serif" font-size="14" font-weight="bold" lengthAdjust="spacingAndGlyphs" textLength="72" x="265" y="594.7139">git blame</text><path d="M212,589.8672 L222,589.8672 C237,589.8672 237,589.8672 252,589.8672 L262,589.8672 " fill="none" style="stroke: #383838; stroke-width: 1.0;"/><path d="M99,485.7148 L109,485.7148 C124,485.7148 124,589.8672 139,589.8672 L149,589.8672 " fill="none" style="stroke: #383838; stroke-width: 1.0;"/><rect fill="#F8F8F8" height="36.2969" rx="12.5" ry="12.5" style="stroke: #383838; stroke-width: 1.5;" width="63" x="149" y="628.0156"/><text fill="#000000" font-family="sans-serif" font-size="14" lengthAdjust="spacingAndGlyphs" textLength="43" x="159" y="651.0107">Exp08</text><text fill="#000000" font-family="sans-serif" font-size="14" font-weight="bold" lengthAdjust="spacingAndGlyphs" textLength="68" x="265" y="623.5654">git stash</text><path d="M212,646.1641 L222,646.1641 C237,646.1641 237,618.7188 252,618.7188 L262,618.7188 " fill="none" style="stroke: #383838; stroke-width: 1.0;"/><text fill="#000000" font-family="sans-serif" font-size="14" font-weight="bold" lengthAdjust="spacingAndGlyphs" textLength="72" x="265" y="641.8623">git reflog</text><path d="M212,646.1641 L222,646.1641 C237,646.1641 237,637.0156 252,637.0156 L262,637.0156 " fill="none" style="stroke: #383838; stroke-width: 1.0;"/><text fill="#000000" font-family="sans-serif" font-size="14" font-weight="bold" lengthAdjust="spacingAndGlyphs" textLength="123" x="265" y="660.1592">git filter-branch</text><path d="M212,646.1641 L222,646.1641 C237,646.1641 237,655.3125 252,655.3125 L262,655.3125 " fill="none" style="stroke: #383838; stroke-width: 1.0;"/><text fill="#000000" font-family="sans-serif" font-size="14" font-weight="bold" lengthAdjust="spacingAndGlyphs" textLength="67" x="265" y="678.4561">git clean</text><path d="M212,646.1641 L222,646.1641 C237,646.1641 237,673.6094 252,673.6094 L262,673.6094 " fill="none" style="stroke: #383838; stroke-width: 1.0;"/><path d="M99,485.7148 L109,485.7148 C124,485.7148 124,646.1641 139,646.1641 L149,646.1641 " fill="none" style="stroke: #383838; stroke-width: 1.0;"/><rect fill="#F8F8F8" height="36.2969" rx="12.5" ry="12.5" style="stroke: #383838; stroke-width: 1.5;" width="63" x="149" y="701.2031"/><text fill="#000000" font-family="sans-serif" font-size="14" lengthAdjust="spacingAndGlyphs" textLength="43" x="159" y="724.1982">Exp09</text><text fill="#000000" font-family="sans-serif" font-size="14" font-weight="bold" lengthAdjust="spacingAndGlyphs" textLength="79" x="265" y="696.7529">git cat-file</text><path d="M212,719.3516 L222,719.3516 C237,719.3516 237,691.9063 252,691.9063 L262,691.9063 " fill="none" style="stroke: #383838; stroke-width: 1.0;"/><text fill="#000000" font-family="sans-serif" font-size="14" font-weight="bold" lengthAdjust="spacingAndGlyphs" textLength="134" x="265" y="715.0498">git count-objects</text><path d="M212,719.3516 L222,719.3516 C237,719.3516 237,710.2031 252,710.2031 L262,710.2031 " fill="none" style="stroke: #383838; stroke-width: 1.0;"/><text fill="#000000" font-family="sans-serif" font-size="14" font-weight="bold" lengthAdjust="spacingAndGlyphs" textLength="44" x="265" y="733.3467">git gc</text><path d="M212,719.3516 L222,719.3516 C237,719.3516 237,728.5 252,728.5 L262,728.5 " fill="none" style="stroke: #383838; stroke-width: 1.0;"/><text fill="#000000" font-family="sans-serif" font-size="14" font-weight="bold" lengthAdjust="spacingAndGlyphs" textLength="118" x="265" y="751.6436">git hash-object</text><path d="M212,719.3516 L222,719.3516 C237,719.3516 237,746.7969 252,746.7969 L262,746.7969 " fill="none" style="stroke: #383838; stroke-width: 1.0;"/><path d="M99,485.7148 L109,485.7148 C124,485.7148 124,719.3516 139,719.3516 L149,719.3516 " fill="none" style="stroke: #383838; stroke-width: 1.0;"/><rect fill="#F8F8F8" height="36.2969" rx="12.5" ry="12.5" style="stroke: #383838; stroke-width: 1.5;" width="63" x="149" y="765.2422"/><text fill="#000000" font-family="sans-serif" font-size="14" lengthAdjust="spacingAndGlyphs" textLength="43" x="159" y="788.2373">Exp10</text><text fill="#000000" font-family="sans-serif" font-size="14" font-weight="bold" lengthAdjust="spacingAndGlyphs" textLength="83" x="265" y="769.9404">git archive</text><path d="M212,783.3906 L222,783.3906 C237,783.3906 237,765.0938 252,765.0938 L262,765.0938 " fill="none" style="stroke: #383838; stroke-width: 1.0;"/><text fill="#000000" font-family="sans-serif" font-size="14" font-weight="bold" lengthAdjust="spacingAndGlyphs" textLength="58" x="265" y="788.2373">git fsck</text><path d="M212,783.3906 L222,783.3906 C237,783.3906 237,783.3906 252,783.3906 L262,783.3906 " fill="none" style="stroke: #383838; stroke-width: 1.0;"/><text fill="#000000" font-family="sans-serif" font-size="14" font-weight="bold" lengthAdjust="spacingAndGlyphs" textLength="112" x="265" y="806.5342">git submodule</text><path d="M212,783.3906 L222,783.3906 C237,783.3906 237,801.6875 252,801.6875 L262,801.6875 " fill="none" style="stroke: #383838; stroke-width: 1.0;"/><path d="M99,485.7148 L109,485.7148 C124,485.7148 124,783.3906 139,783.3906 L149,783.3906 " fill="none" style="stroke: #383838; stroke-width: 1.0;"/><rect fill="#F8F8F8" height="36.2969" rx="12.5" ry="12.5" style="stroke: #383838; stroke-width: 1.5;" width="63" x="149" y="821.5391"/><text fill="#000000" font-family="sans-serif" font-size="14" lengthAdjust="spacingAndGlyphs" textLength="43" x="159" y="844.5342">Exp11</text><text fill="#000000" font-family="sans-serif" font-size="14" font-weight="bold" lengthAdjust="spacingAndGlyphs" textLength="73" x="265" y="844.5342">git bisect</text><path d="M212,839.6875 L222,839.6875 C237,839.6875 237,839.6875 252,839.6875 L262,839.6875 " fill="none" style="stroke: #383838; stroke-width: 1.0;"/><path d="M99,485.7148 L109,485.7148 C124,485.7148 124,839.6875 139,839.6875 L149,839.6875 " fill="none" style="stroke: #383838; stroke-width: 1.0;"/><rect fill="#F8F8F8" height="36.2969" rx="12.5" ry="12.5" style="stroke: #383838; stroke-width: 1.5;" width="63" x="149" y="877.8359"/><text fill="#000000" font-family="sans-serif" font-size="14" lengthAdjust="spacingAndGlyphs" textLength="43" x="159" y="900.8311">Exp12</text><path d="M99,485.7148 L109,485.7148 C124,485.7148 124,895.9844 139,895.9844 L149,895.9844 " fill="none" style="stroke: #383838; stroke-width: 1.0;"/><!--MD5=[0e157e4ac5fc8381a384b5c52d021d8e]
@startmindmap
skinparam monochrome true
skinparam Shadowing false
skinparam DefaultTextAlignment center
title: 各章节命令一览表

* GitCourse
	* Exp01
		*_ <b>gh repo</b> [clone|create|fork|view]
		*_ <b>gh issue</b> [list|view|status|create|close|reopen]
		*_ <b>gh pr</b> [checks|list|view|create|close|reopen|diff|review|merge]
		*_ <b>gh release</b> [view|list|create|delete|download|upload]
		*_ <b>gh gist</b>
	* Exp02
		*_ <b>git config</b> [- -global|system|local] <key> <value></b>
		*_ <b>git init</b>
		*_ <b>git add</b> [.|file|folder]</b>
		*_ <b>git commit</b> [-m msg]</b>
		*_ <b>git log</b>
		*_ <b>git show</b>
		*_ <b>git status</b>
	* Exp03
		*_ <b>git clone</b>
		*_ <b>git fetch</b>
		*_ <b>git push</b>
		*_ <b>git remote</b>
	* Exp04
		*_ <b>git pull</b>
		*_ <b>git branch</b>
		*_ <b>git checkout</b>
		*_ <b>git tag</b>
		*_ <b>git diff/difftool</b>
		*_ <b>git merge/mergetool</b>
	* Exp05
		*_ <b>git reset</b>
		*_ <b>git revert</b>
		*_ <b>git rebase</b> [-i]
	* Exp06
	* Exp07
		*_ <b>git blame</b>
	* Exp08
		*_ <b>git stash</b>
		*_ <b>git reflog</b>
		*_ <b>git filter-branch</b>
		*_ <b>git clean</b>
	* Exp09
		*_ <b>git cat-file</b>
		*_ <b>git count-objects</b>
		*_ <b>git gc</b>
		*_ <b>git hash-object</b>
	* Exp10
		*_ <b>git archive</b>
		*_ <b>git fsck</b>
		*_ <b>git submodule</b>
	* Exp11
		*_ <b>git bisect</b>
	* Exp12
@endmindmap

PlantUML version 1.2020.19(Mon Oct 12 23:10:01 CST 2020)
(GPL source distribution)
Java Runtime: Java(TM) SE Runtime Environment
JVM: Java HotSpot(TM) 64-Bit Server VM
Default Encoding: UTF-8
Language: en
Country: US
--></g></svg>